Coordinates
version=1
nRows=41
nColumns=38
inDegrees=no

Units are S.I. units (second, meters, Newtons, ...)
If the header above contains a line with 'inDegrees', this indicates whether rotational values are in degrees (yes) or radians (no).

endheader
time	pelvis_tilt	pelvis_list	pelvis_rotation	pelvis_tx	pelvis_ty	pelvis_tz	hip_flexion_r	hip_adduction_r	hip_rotation_r	knee_angle_r	ankle_angle_r	subtalar_angle_r	mtp_angle_r	hip_flexion_l	hip_adduction_l	hip_rotation_l	knee_angle_l	ankle_angle_l	subtalar_angle_l	mtp_angle_l	lumbar_extension	lumbar_bending	lumbar_rotation	arm_flex_r	arm_add_r	arm_rot_r	elbow_flex_r	pro_sup_r	wrist_flex_r	wrist_dev_r	arm_flex_l	arm_add_l	arm_rot_l	elbow_flex_l	pro_sup_l	wrist_flex_l	wrist_dev_l
2.06	-2.2868	1.4935	-2.43137	0.845566	1.22906	0.989024	0.0273401	-0.219143	-0.260727	1.02335	-0.151848	0	0	0.286742	0.0831184	-0.420138	0.389063	0.05417	0	0	-0.200773	-0.0916611	0.0874288	-0.0948263	-0.159381	-0.106611	0.355418	1.49758	0	0	-0.00664456	-0.323772	0.590526	0.433828	1.08875	0	0
2.07	-2.16958	1.49243	-2.5451	0.844192	1.23771	0.9893	0.0623175	-0.229167	-0.238619	1.06696	-0.193683	0	0	0.283181	0.0925088	-0.418575	0.387414	0.0618273	0	0	-0.194948	-0.0986926	0.0859755	-0.0966385	-0.158163	-0.107905	0.35737	1.4951	0	0	-0.00560939	-0.327404	0.592874	0.440325	1.08756	0	0
2.08	-2.10309	1.48887	-2.60962	0.842946	1.24624	0.990182	0.0922686	-0.237114	-0.21517	1.10637	-0.234814	0	0	0.274249	0.101837	-0.414548	0.383222	0.0685792	0	0	-0.193748	-0.105361	0.0858425	-0.0971646	-0.157132	-0.108467	0.358953	1.49231	0	0	-0.0033649	-0.329962	0.593979	0.445613	1.08546	0	0
2.09	-2.07282	1.48413	-2.63928	0.84184	1.25469	0.99148	0.118541	-0.243007	-0.190863	1.14176	-0.273507	0	0	0.261289	0.111064	-0.408711	0.376666	0.0747164	0	0	-0.195479	-0.111781	0.0869717	-0.0965431	-0.156076	-0.108577	0.359721	1.48898	0	0	-0.000117383	-0.331827	0.594584	0.449783	1.08319	0	0
2.1	-2.06064	1.47938	-2.65185	0.84086	1.26302	0.993003	0.143206	-0.246118	-0.164508	1.1744	-0.305003	0	0	0.245716	0.11999	-0.401869	0.36727	0.0804839	0	0	-0.198389	-0.117651	0.0886831	-0.0948271	-0.154866	-0.108228	0.35959	1.48519	0	0	0.0037025	-0.333149	0.596499	0.452191	1.08185	0	0
2.11	-2.0528	1.4746	-2.66114	0.839993	1.27127	0.994592	0.167329	-0.251814	-0.143188	1.20635	-0.320242	0	0	0.228114	0.12918	-0.395944	0.354318	0.0866853	0	0	-0.201318	-0.123629	0.0909193	-0.0920463	-0.153433	-0.106854	0.357774	1.48124	0	0	0.0079946	-0.334072	0.600075	0.452499	1.08039	0	0
2.12	-2.04969	1.47152	-2.66671	0.839355	1.2792	0.996249	0.191738	-0.250633	-0.116209	1.23553	-0.313332	0	0	0.21015	0.136386	-0.391841	0.339279	0.0920681	0	0	-0.204239	-0.128184	0.0936444	-0.087428	-0.152147	-0.104252	0.354709	1.47696	0	0	0.0132417	-0.334528	0.60444	0.451677	1.07788	0	0
2.13	-2.04275	1.46877	-2.67553	0.838707	1.28698	0.997826	0.215521	-0.250772	-0.0938202	1.26096	-0.294537	0	0	0.191899	0.143948	-0.387749	0.322335	0.0964673	0	0	-0.206718	-0.132559	0.0952232	-0.0819967	-0.151286	-0.100434	0.351319	1.47299	0	0	0.018886	-0.335202	0.609489	0.450184	1.07513	0	0
2.14	-2.04912	1.46547	-2.66956	0.837558	1.2948	0.999521	0.246227	-0.274346	-0.100695	1.29425	-0.293584	0	0	0.171027	0.152175	-0.384204	0.303794	0.0998356	0	0	-0.210682	-0.135622	0.0948536	-0.0766801	-0.151995	-0.0959858	0.348721	1.46926	0	0	0.0246209	-0.33482	0.614873	0.448063	1.07188	0	0
2.15	-2.01546	1.46537	-2.70625	0.837368	1.3021	1.00057	0.262257	-0.247466	-0.0504786	1.29643	-0.253994	0	0	0.156796	0.157413	-0.382353	0.285567	0.102023	0	0	-0.208835	-0.139835	0.0973241	-0.0709682	-0.152157	-0.0797404	0.345643	1.44658	0	0	0.0310739	-0.342235	0.644988	0.454403	1.03237	0	0
2.16	-1.97903	1.45635	-2.74125	0.83644	1.30895	1.00247	0.283469	-0.25323	-0.0289521	1.30552	-0.240871	0	0	0.136849	0.172849	-0.382548	0.261259	0.0968989	0	0	-0.213376	-0.151517	0.0928765	-0.0622054	-0.150887	-0.0725212	0.341852	1.44033	0	0	0.0398614	-0.345384	0.654206	0.453473	1.02433	0	0
2.17	-1.95574	1.4652	-2.76561	0.835437	1.31676	1.00251	0.307922	-0.239391	-0.0108354	1.31063	-0.229292	0	0	0.127481	0.169571	-0.373775	0.249445	0.106206	0	0	-0.205987	-0.143212	0.0952177	-0.0612502	-0.155077	-0.0643486	0.343369	1.43422	0	0	0.0429315	-0.344808	0.663876	0.453673	1.01577	0	0
2.18	-1.93464	1.46464	-2.78587	0.834366	1.32403	1.00341	0.327455	-0.236319	0.0060284	1.31054	-0.220421	0	0	0.112083	0.175695	-0.368104	0.231959	0.107746	0	0	-0.205695	-0.144411	0.0932642	-0.0561347	-0.156626	-0.0578622	0.342103	1.42887	0	0	0.048919	-0.345692	0.671974	0.453167	1.00868	0	0
2.19	-1.91423	1.46492	-2.80437	0.833209	1.33117	1.0042	0.345734	-0.233396	0.0200376	1.30632	-0.211265	0	0	0.0973654	0.180578	-0.362686	0.215662	0.110019	0	0	-0.205459	-0.144354	0.0903945	-0.0504531	-0.158174	-0.0516114	0.339967	1.42392	0	0	0.0552572	-0.345805	0.679434	0.451749	1.00185	0	0
2.2	-1.90518	1.4657	-2.81108	0.831989	1.33817	1.00504	0.361472	-0.231047	0.0306976	1.29774	-0.200832	0	0	0.0824114	0.184579	-0.356946	0.200502	0.114563	0	0	-0.206729	-0.142972	0.0869665	-0.0439313	-0.159864	-0.0452405	0.337229	1.41904	0	0	0.0622336	-0.344859	0.68687	0.448985	0.995159	0	0
2.21	-1.90342	1.46724	-2.81016	0.830762	1.34508	1.00583	0.375136	-0.228567	0.0385268	1.28518	-0.188282	0	0	0.0675657	0.187112	-0.350784	0.186544	0.117217	0	0	-0.208804	-0.140287	0.0832546	-0.0369267	-0.161673	-0.0385209	0.334071	1.41421	0	0	0.0694828	-0.343484	0.694982	0.445636	0.988791	0	0
2.22	-1.903	1.46946	-2.8071	0.829506	1.35196	1.00651	0.387274	-0.226184	0.0432265	1.2691	-0.173826	0	0	0.0540934	0.188195	-0.345499	0.175402	0.119848	0	0	-0.21096	-0.136629	0.0787553	-0.0299657	-0.163455	-0.0321768	0.3314	1.40981	0	0	0.0764249	-0.342148	0.703131	0.442985	0.982226	0	0
2.23	-1.92948	1.47156	-2.77533	0.827988	1.35886	1.00739	0.39408	-0.225076	0.0430458	1.24863	-0.157354	0	0	0.0363516	0.189496	-0.335365	0.160826	0.119793	0	0	-0.21598	-0.131178	0.070999	-0.0271487	-0.173274	0.0351729	0.340223	1.32433	0	0	0.0832123	-0.33449	0.690571	0.429875	1.00098	0	0
2.24	-1.94399	1.47382	-2.75569	0.826612	1.36568	1.00805	0.401533	-0.224127	0.0421535	1.22569	-0.139287	0	0	0.0216398	0.190128	-0.327657	0.149458	0.121666	0	0	-0.219914	-0.126553	0.0648083	-0.0201342	-0.175487	0.0458723	0.338477	1.31373	0	0	0.0907571	-0.331549	0.696408	0.424827	0.994674	0	0
2.25	-1.96497	1.47591	-2.73051	0.825335	1.37245	1.00868	0.407626	-0.222941	0.0405806	1.1999	-0.119442	0	0	0.00688908	0.190267	-0.320225	0.138985	0.123717	0	0	-0.224574	-0.122061	0.0595464	-0.013189	-0.177817	0.0563971	0.337745	1.30298	0	0	0.098125	-0.328724	0.701897	0.420626	0.987864	0	0
2.26	-1.98298	1.47874	-2.70836	0.824133	1.37921	1.00917	0.413388	-0.221236	0.0373931	1.17127	-0.0996779	0	0	-0.00660477	0.189414	-0.31242	0.129739	0.126012	0	0	-0.228462	-0.117176	0.0544751	-0.00637234	-0.180157	0.0673501	0.337422	1.2919	0	0	0.104719	-0.32642	0.707275	0.417776	0.980322	0	0
2.27	-1.98302	1.48178	-2.70467	0.822992	1.3858	1.00942	0.42101	-0.220121	0.0336784	1.14087	-0.0824566	0	0	-0.0174829	0.188736	-0.30549	0.12183	0.128608	0	0	-0.230892	-0.113098	0.0498742	0.000576636	-0.182413	0.0786015	0.337202	1.28012	0	0	0.111205	-0.324485	0.712923	0.415578	0.971678	0	0
2.28	-1.97253	1.48437	-2.71284	0.82197	1.39216	1.00955	0.42981	-0.219675	0.0298868	1.10889	-0.0674355	0	0	-0.0271044	0.188844	-0.300035	0.11386	0.130525	0	0	-0.233261	-0.110256	0.0465402	0.00801167	-0.184502	0.089351	0.336913	1.26727	0	0	0.118188	-0.323066	0.7189	0.4142	0.961986	0	0
2.29	-1.96891	1.48663	-2.7147	0.82104	1.39855	1.00967	0.437206	-0.219995	0.0224168	1.07468	-0.0512637	0	0	-0.0379507	0.188926	-0.293926	0.105114	0.132158	0	0	-0.236483	-0.107714	0.0438065	0.0152633	-0.186468	0.0987002	0.337145	1.25255	0	0	0.125145	-0.322301	0.725404	0.413891	0.951171	0	0
2.3	-1.96549	1.489	-2.71634	0.820214	1.40498	1.0097	0.443958	-0.220249	0.0129998	1.03913	-0.037521	0	0	-0.0488211	0.188937	-0.287051	0.0961416	0.133125	0	0	-0.239747	-0.105272	0.0410276	0.0223111	-0.18793	0.105424	0.337706	1.23407	0	0	0.131324	-0.32281	0.731793	0.416021	0.938892	0	0
2.31	-1.97793	1.49333	-2.70563	0.818957	1.41123	1.00955	0.452241	-0.226784	-0.00115377	1.00189	-0.0217518	0	0	-0.0560593	0.191059	-0.273079	0.092907	0.130971	0	0	-0.243634	-0.0994674	0.0383842	0.032266	-0.189445	0.105828	0.336949	1.20768	0	0	0.133178	-0.325043	0.732313	0.427607	0.924472	0	0
2.32	-1.93057	1.49651	-2.75051	0.818843	1.4178	1.00951	0.459994	-0.217722	-0.00965223	0.96496	-0.0192042	0	0	-0.0662999	0.186644	-0.278585	0.0792859	0.135555	0	0	-0.244108	-0.0980896	0.0398531	0.0437937	-0.18076	0.0284442	0.318773	1.36274	0	0	0.147842	-0.293699	0.625134	0.366359	1.09937	0	0
2.33	-1.92661	1.5004	-2.75442	0.818302	1.42409	1.00943	0.466174	-0.216251	-0.0254964	0.926209	-0.0131273	0	0	-0.0761039	0.184807	-0.27259	0.0704415	0.136247	0	0	-0.247565	-0.0941505	0.0398236	0.0510484	-0.182728	0.0336174	0.319007	1.35917	0	0	0.154983	-0.291654	0.624569	0.364397	1.09871	0	0
2.34	-1.95457	1.5053	-2.72665	0.817895	1.4306	1.00945	0.468792	-0.212268	-0.043221	0.88542	-0.00913093	0	0	-0.0878746	0.180707	-0.265553	0.0615549	0.136916	0	0	-0.252369	-0.0883776	0.0403753	0.0583858	-0.184821	0.0388234	0.318598	1.356	0	0	0.161368	-0.289605	0.624065	0.363161	1.09785	0	0
2.35	-2.00087	1.5106	-2.68089	0.817616	1.43728	1.00951	0.469613	-0.207016	-0.0632877	0.843601	-0.00746052	0	0	-0.100021	0.175514	-0.259909	0.0534336	0.138377	0	0	-0.257368	-0.0818938	0.0413548	0.0656735	-0.186753	0.0434877	0.317667	1.35307	0	0	0.166968	-0.287844	0.623929	0.362548	1.09665	0	0
2.36	-2.0398	1.51583	-2.64316	0.817503	1.44405	1.00946	0.471163	-0.201571	-0.0852692	0.802421	-0.00606561	0	0	-0.11056	0.170396	-0.256136	0.0467832	0.140706	0	0	-0.261278	-0.0761609	0.0428176	0.0726474	-0.18824	0.0476619	0.316781	1.35013	0	0	0.171922	-0.286666	0.624216	0.363062	1.09451	0	0
2.37	-2.11999	1.52125	-2.5651	0.817553	1.45103	1.0095	0.470226	-0.194204	-0.109933	0.760514	-0.00470257	0	0	-0.121881	0.163717	-0.253018	0.0417401	0.143856	0	0	-0.266198	-0.0694533	0.0452333	0.0791908	-0.190035	0.0529036	0.316438	1.34571	0	0	0.176309	-0.285567	0.624998	0.364315	1.09029	0	0
2.38	-2.17648	1.52681	-2.51191	0.81785	1.45812	1.00934	0.471252	-0.185756	-0.133726	0.719222	-0.00108021	0	0	-0.12977	0.157211	-0.252417	0.0397734	0.148046	0	0	-0.268945	-0.0642149	0.049085	0.0877737	-0.187377	0.0261971	0.309512	1.38285	0	0	0.180861	-0.284331	0.623922	0.364049	1.09151	0	0
2.39	-2.41762	1.53003	-2.27078	0.817912	1.46541	1.00975	0.461178	-0.17537	-0.166806	0.674213	0.00244255	0	0	-0.145138	0.146863	-0.248843	0.0370857	0.151119	0	0	-0.27857	-0.0544922	0.0493587	0.0902628	-0.194634	0.0725059	0.31993	1.32392	0	0	0.185055	-0.285998	0.638334	0.369032	1.06431	0	0
2.4	-2.49933	1.53441	-2.19027	0.81818	1.47273	1.00949	0.461113	-0.167767	-0.196631	0.634588	0.00895606	0	0	-0.151463	0.140624	-0.246911	0.0375342	0.152976	0	0	-0.280388	-0.049943	0.0505621	0.0951584	-0.195054	0.0726579	0.320377	1.32724	0	0	0.188868	-0.285077	0.634957	0.367584	1.06834	0	0
2.41	-2.67236	1.53747	-2.01728	0.818494	1.48027	1.00938	0.456796	-0.158065	-0.230602	0.593875	0.0168218	0	0	-0.159764	0.132084	-0.245145	0.0388812	0.15582	0	0	-0.284149	-0.043586	0.0511007	0.0999227	-0.195472	0.0735493	0.320704	1.33013	0	0	0.192752	-0.283931	0.63154	0.365255	1.07182	0	0
2.42	-2.90709	1.53834	-1.78253	0.818889	1.48796	1.00935	0.449993	-0.146132	-0.265523	0.552937	0.0264252	0	0	-0.168985	0.122187	-0.245206	0.0414385	0.160469	0	0	-0.289227	-0.0364213	0.0520539	0.105208	-0.195278	0.0726804	0.31936	1.33296	0	0	0.196837	-0.282538	0.62794	0.362582	1.07549	0	0
2.43	3.11898	1.53705	-1.52546	0.819398	1.49574	1.00932	0.44185	-0.131709	-0.299488	0.511511	0.0361517	0	0	-0.177799	0.111017	-0.247851	0.0457387	0.167495	0	0	-0.294666	-0.0284081	0.0533857	0.110273	-0.19514	0.0710847	0.318235	1.33675	0	0	0.200823	-0.28085	0.623049	0.359391	1.08035	0	0
2.44	2.91042	1.53485	-1.31452	0.820552	1.50319	1.00889	0.439854	-0.103966	-0.314031	0.475892	0.0343467	0	0	-0.181596	0.104019	-0.238833	0.0550386	0.167707	0	0	-0.299113	-0.0222359	0.0537625	0.114012	-0.193922	0.0697832	0.317826	1.34037	0	0	0.205784	-0.280835	0.618992	0.356926	1.0851	0	0
2.45	2.71104	1.52349	-1.11578	0.821052	1.51089	1.00894	0.422322	-0.0803261	-0.339699	0.427716	0.0404113	0	0	-0.194625	0.0891867	-0.249207	0.0632694	0.175842	0	0	-0.309353	-0.0104692	0.0542071	0.105852	-0.225164	0.287695	0.362109	1.04071	0	0	0.20586	-0.297279	0.698663	0.384994	0.956136	0	0
2.46	2.54488	1.51895	-0.949651	0.822323	1.51846	1.00861	0.415652	-0.0564602	-0.344518	0.381855	0.0362533	0	0	-0.1973	0.0760405	-0.245422	0.0740695	0.175468	0	0	-0.313992	-0.00191598	0.055863	0.11004	-0.228504	0.314117	0.367593	1.00923	0	0	0.210607	-0.300119	0.710638	0.387555	0.938109	0	0
